<?xml version="1.0" standalone="no"?>
<!DOCTYPE svg PUBLIC "-//W3C//DTD SVG 20010904//EN"
 "http://www.w3.org/TR/2001/REC-SVG-20010904/DTD/svg10.dtd">
<svg version="1.0" xmlns="http://www.w3.org/2000/svg"
 width="512.000000pt" height="512.000000pt" viewBox="0 0 512.000000 512.000000"
 preserveAspectRatio="xMidYMid meet">
<metadata>
Created by potrace 1.11, written by Peter Selinger 2001-2013
</metadata>
<g transform="translate(0.000000,512.000000) scale(0.100000,-0.100000)"
fill="#000000" stroke="none">
<path d="M2365 5114 c-653 -67 -1178 -309 -1614 -745 -405 -405 -649 -902
-733 -1494 -17 -118 -17 -512 0 -630 84 -592 328 -1089 733 -1494 405 -405
902 -649 1494 -733 118 -17 512 -17 630 0 592 84 1089 328 1494 733 405 405
649 902 733 1494 17 118 17 512 0 630 -84 592 -328 1089 -733 1494 -396 395
-882 639 -1449 726 -101 15 -468 28 -555 19z m240 -1075 c84 -24 135 -89 135
-174 0 -88 -42 -145 -130 -175 l-50 -17 97 -6 c204 -12 361 -75 477 -191 39
-39 84 -95 99 -123 l28 -53 -350 0 -351 0 0 -90 0 -90 369 0 369 0 6 -167 c24
-604 105 -903 296 -1091 l53 -52 -547 0 -546 0 0 -180 0 -180 186 0 187 0 -7
-52 c-32 -250 -297 -392 -529 -285 -101 46 -186 164 -202 278 l-7 49 -465 0
-466 0 5 68 c8 104 40 165 129 243 190 166 251 247 308 413 66 189 97 410 111
786 9 255 16 296 73 405 18 33 59 87 92 121 118 117 245 168 499 200 l49 6
-39 18 c-153 69 -136 292 26 338 47 14 49 14 95 1z"/>
</g>
</svg>
